<?xml version="1.0" encoding="UTF-8"?>
<svg xmlns="http://www.w3.org/2000/svg" xmlns:xlink="http://www.w3.org/1999/xlink" width="24px" height="24px" viewBox="0 0 24 24" version="1.1">
<g id="surface1">
<path style=" stroke:none;fill-rule:nonzero;fill:rgb(0%,0%,0%);fill-opacity:1;" d="M 0 12.003906 C 0 12.460938 0.371094 12.828125 0.828125 12.828125 L 16.582031 12.828125 L 13.507812 15.898438 C 13.183594 16.21875 13.183594 16.742188 13.507812 17.066406 C 13.667969 17.222656 13.878906 17.304688 14.089844 17.304688 C 14.300781 17.304688 14.511719 17.222656 14.671875 17.066406 L 19.148438 12.589844 C 19.46875 12.265625 19.46875 11.742188 19.148438 11.421875 L 14.671875 6.945312 C 14.347656 6.621094 13.824219 6.621094 13.503906 6.945312 C 13.179688 7.265625 13.179688 7.789062 13.503906 8.113281 L 16.570312 11.179688 L 0.828125 11.179688 C 0.371094 11.179688 0 11.546875 0 12.003906 Z M 0 12.003906 "/>
<path style=" stroke:none;fill-rule:nonzero;fill:rgb(0%,0%,0%);fill-opacity:1;" d="M 19.0625 23.765625 C 21.789062 23.765625 24 21.546875 24 18.820312 L 24 5.179688 C 24 2.453125 21.785156 0.234375 19.0625 0.234375 L 5.417969 0.234375 C 2.691406 0.234375 0.480469 2.453125 0.480469 5.179688 L 0.480469 7.980469 C 0.480469 8.4375 0.851562 8.804688 1.304688 8.804688 C 1.761719 8.804688 2.128906 8.433594 2.128906 7.980469 L 2.128906 5.179688 C 2.128906 3.367188 3.605469 1.886719 5.417969 1.886719 L 19.0625 1.886719 C 20.875 1.886719 22.351562 3.359375 22.351562 5.179688 L 22.351562 18.820312 C 22.351562 20.632812 20.875 22.113281 19.0625 22.113281 L 5.417969 22.113281 C 3.605469 22.113281 2.128906 20.640625 2.128906 18.820312 L 2.128906 16.050781 C 2.128906 15.59375 1.761719 15.222656 1.304688 15.222656 C 0.847656 15.222656 0.480469 15.59375 0.480469 16.050781 L 0.480469 18.820312 C 0.480469 21.546875 2.699219 23.765625 5.417969 23.765625 Z M 19.0625 23.765625 "/>
</g>
</svg>
