<?xml version="1.0" encoding="UTF-8"?>
<svg xmlns="http://www.w3.org/2000/svg" xmlns:xlink="http://www.w3.org/1999/xlink" width="24px" height="24px" viewBox="0 0 24 24" version="1.1">
<g id="surface1">
<path style=" stroke:none;fill-rule:nonzero;fill:rgb(0%,0%,0%);fill-opacity:1;" d="M 19.382812 10.617188 L 4.617188 10.617188 C 3.601562 10.617188 2.769531 11.445312 2.769531 12.460938 L 2.769531 21.230469 C 2.769531 22.246094 3.601562 23.078125 4.617188 23.078125 L 19.382812 23.078125 C 20.398438 23.078125 21.230469 22.246094 21.230469 21.230469 L 21.230469 12.460938 C 21.230469 11.445312 20.398438 10.617188 19.382812 10.617188 Z M 14.308594 20.539062 C 13.617188 21 12.832031 21.230469 12 21.230469 C 11.722656 21.230469 11.445312 21.183594 11.167969 21.136719 C 10.0625 20.90625 9.136719 20.308594 8.539062 19.382812 L 10.0625 18.371094 C 10.382812 18.875 10.9375 19.246094 11.539062 19.339844 C 12.136719 19.476562 12.738281 19.339844 13.292969 18.96875 C 14.355469 18.277344 14.628906 16.800781 13.9375 15.785156 C 13.617188 15.277344 13.0625 14.90625 12.460938 14.816406 C 11.863281 14.675781 11.261719 14.816406 10.707031 15.183594 C 10.570312 15.277344 10.476562 15.371094 10.382812 15.460938 L 12 17.078125 L 7.847656 17.078125 L 7.847656 12.921875 L 9.046875 14.125 C 9.230469 13.9375 9.460938 13.753906 9.644531 13.617188 C 10.570312 13.015625 11.675781 12.785156 12.785156 12.96875 C 13.890625 13.199219 14.816406 13.800781 15.414062 14.722656 C 16.707031 16.660156 16.199219 19.246094 14.308594 20.539062 Z M 14.308594 20.539062 "/>
<path style=" stroke:none;fill-rule:nonzero;fill:rgb(0%,0%,0%);fill-opacity:1;" d="M 5.078125 8.769531 L 6.921875 8.769531 C 7.199219 8.769531 7.382812 8.628906 7.382812 8.355469 L 7.382812 8.308594 C 7.382812 5.675781 9.644531 3.507812 12.324219 3.691406 C 14.769531 3.875 16.617188 6 16.617188 8.492188 L 16.617188 8.355469 C 16.617188 8.628906 16.800781 8.769531 17.078125 8.769531 L 18.921875 8.769531 C 19.199219 8.769531 19.382812 8.628906 19.382812 8.355469 L 19.382812 8.308594 C 19.382812 4.109375 15.875 0.738281 11.628906 0.921875 C 7.707031 1.109375 4.707031 4.429688 4.617188 8.355469 C 4.660156 8.585938 4.847656 8.769531 5.078125 8.769531 Z M 5.078125 8.769531 "/>
</g>
</svg>
